{"title":"American History X 1998 DVDrip English Klam","uid":6520297,"size":1892495209,"categoryP":"video","categoryS":"movies","magnet":"?xt=urn:btih:8af551975128ab20728d2e18d8a626ecd12b7e71&amp;dn=American+History+X+1998+DVDrip+English+Klam&amp;tr=udp%3A%2F%2Ftracker.openbittorrent.com%3A80&amp;tr=udp%3A%2F%2Fopen.demonii.com%3A1337&amp;tr=udp%3A%2F%2Ftracker.coppersurfer.tk%3A6969&amp;tr=udp%3A%2F%2Fexodus.desync.com%3A6969","seeders":2,"leechers":0,"uploader":"Klambake","files":-1,"time":1309969007,"description":"With: Edward Norton, Edward Furlong and Fairuza Balk\n\nDanny Vinyard is een tiener die helemaal onder invloed staat van zijn oudere broer, de skinhead Derek. Wanneer Danny op school een enthousiast verslag maakt over Hitlers 'Mein Kampf', stelt het schoolhoofd hem voor de keus, of een opstel schrijven over zijn broer Derek, of van school getrapt worden. Dereks haat tegen andere rassen vloeit voort uit de moord op zijn vader. Derek sluit zich aan bij een bende en belandt in de gevangenis voor moord. Weer vrij is Derek veranderd. Hij wil een aantal mensen een lesje leren, waaronder zijn eigen broertje...\n\nA former neo-nazi skinhead tries to prevent his younger brother from going down the same wrong path that he did. \n\n------------------ Dutch Friends ------------------\nYou can find my Friends at: http://www.Film-Test.nl \n------ They got my dutchs subs ---- and more ------\n\nGeneral:\n\nComplete name                    : American History X\\American History X.avi\nFormat                           : AVI\nFormat/Info                      : Audio Video Interleave\nFile size                        : 1.76 GiB\nDuration                         : 1h 53mn\nOverall bit rate                 : 2 214 Kbps\n\nVideo:\n\nFormat                           : MPEG-4 Visual\nFormat profile                   : Simple@L3\nFormat settings, BVOP            : No\nFormat settings, QPel            : No\nFormat settings, GMC             : No warppoints\nFormat settings, Matrix          : Default (H.263)\nCodec ID                         : XVID\nCodec ID/Hint                    : XviD\nDuration                         : 1h 53mn\nBit rate                         : 1 755 Kbps\nWidth                            : 652 pixels\nHeight                           : 352 pixels\nDisplay aspect ratio             : 1.852\nFrame rate                       : 25.000 fps\nColor space                      : YUV\nChroma subsampling               : 4:2:0\nBit depth                        : 8 bits\nScan type                        : Progressive\nBits/(Pixel*Frame)               : 0.306\nStream size                      : 1.40 GiB (79%)\nWriting library                  : XviD 1.1.2 (UTC 2006-11-01)\n\nAudio:\n\nFormat                           : AC-3\nFormat/Info                      : Audio Coding 3\nMode extension                   : CM (complete main)\nCodec ID                         : 2000\nDuration                         : 1h 53mn\nBit rate mode                    : Constant\nBit rate                         : 448 Kbps\nChannel(s)                       : 6 channels\nChannel positions                : Front: L C R, Side: L R, LFE\nSampling rate                    : 48.0 KHz\nBit depth                        : 16 bits\nStream size                      : 365 MiB (20%)\nAlignment                        : Aligned on interleaves\nInterleave, duration             : 32 ms (0.80 video frame)\nInterleave, preload duration     : 32 ms\n\n","torrent":{"xt":"urn:btih:8af551975128ab20728d2e18d8a626ecd12b7e71","amp;dn":"American+History+X+1998+DVDrip+English+Klam","amp;tr":["udp%3A%2F%2Ftracker.openbittorrent.com%3A80","udp%3A%2F%2Fopen.demonii.com%3A1337","udp%3A%2F%2Ftracker.coppersurfer.tk%3A6969","udp%3A%2F%2Fexodus.desync.com%3A6969"],"infoHash":"8af551975128ab20728d2e18d8a626ecd12b7e71","infoHashBuffer":{"type":"Buffer","data":[138,245,81,151,81,40,171,32,114,141,46,24,216,166,38,236,209,43,126,113]},"announce":[],"urlList":[]}}